<?xml version="1.0" standalone="no"?>
<!DOCTYPE svg PUBLIC "-//W3C//DTD SVG 20010904//EN"
 "http://www.w3.org/TR/2001/REC-SVG-20010904/DTD/svg10.dtd">
<svg version="1.0" xmlns="http://www.w3.org/2000/svg"
 width="700.000000pt" height="700.000000pt" viewBox="0 0 700.000000 700.000000"
 preserveAspectRatio="xMidYMid meet">
<metadata>
Created by potrace 1.11, written by Peter Selinger 2001-2013
</metadata>
<g transform="translate(0.000000,700.000000) scale(0.100000,-0.100000)"
fill="#000000" stroke="none">
<path d="M3555 6834 c-5 -1 -91 -5 -190 -8 -99 -3 -198 -8 -220 -11 -22 -3
-76 -10 -120 -16 -318 -41 -672 -150 -990 -305 -565 -274 -1057 -725 -1390
-1274 -194 -319 -362 -758 -421 -1100 -2 -14 -7 -36 -9 -50 -3 -14 -7 -43 -10
-65 -3 -22 -7 -49 -9 -60 -2 -11 -7 -56 -11 -100 -3 -44 -8 -96 -11 -115 -7
-52 -7 -394 1 -475 20 -211 38 -335 76 -500 210 -914 807 -1710 1624 -2165 89
-50 241 -124 315 -155 36 -14 79 -32 95 -39 41 -18 192 -69 295 -99 176 -52
414 -98 580 -112 41 -4 89 -9 105 -11 42 -5 434 -5 465 0 14 3 57 7 96 11 307
24 673 118 988 253 139 59 290 135 374 189 29 18 54 33 56 33 10 0 168 109
261 179 409 309 745 710 970 1161 134 267 251 601 290 830 3 19 10 53 15 75 4
22 11 63 15 90 3 28 8 57 10 65 2 8 7 51 11 95 3 44 8 96 10 115 4 48 4 406 0
455 -13 144 -19 202 -22 220 -2 10 -6 37 -9 60 -3 22 -8 54 -12 70 -3 17 -7
39 -9 50 -21 160 -128 504 -219 710 -103 234 -284 538 -422 710 -136 170 -328
371 -453 476 -36 30 -67 56 -70 59 -3 3 -25 21 -50 40 -25 19 -49 38 -55 43
-169 135 -468 306 -730 417 -242 103 -592 197 -840 225 -27 3 -59 8 -70 10
-11 2 -81 7 -155 11 -74 3 -137 8 -140 9 -3 1 -9 1 -15 -1z m350 -198 c290
-22 714 -152 1035 -319 74 -38 145 -75 157 -81 13 -6 23 -14 23 -18 0 -5 5 -8
11 -8 25 0 321 -213 444 -320 80 -69 312 -307 371 -380 117 -145 224 -301 312
-455 188 -330 331 -757 377 -1125 4 -30 9 -64 11 -75 22 -116 22 -536 0 -710
-12 -90 -19 -140 -31 -205 -8 -41 -17 -88 -20 -105 -10 -64 -86 -325 -120
-415 -20 -52 -40 -107 -45 -122 -37 -117 -279 -548 -372 -663 -5 -5 -27 -35
-50 -65 -339 -443 -815 -802 -1338 -1010 -101 -40 -325 -115 -372 -124 -13 -2
-52 -11 -88 -20 -101 -24 -102 -18 -7 29 616 310 967 949 912 1665 -3 47 -10
103 -15 125 -5 22 -11 51 -14 65 -49 262 -193 539 -379 732 -200 206 -442 343
-737 414 -84 20 -87 21 -140 28 -25 3 -55 8 -67 10 -11 3 -73 7 -137 10 -64 3
-169 9 -233 12 -65 3 -120 7 -123 9 -3 1 -27 6 -55 9 -27 4 -57 9 -65 11 -8 2
-26 6 -40 9 -212 38 -503 173 -660 305 -111 93 -160 143 -264 271 -43 53 -164
265 -171 300 -1 3 -9 23 -18 44 -42 96 -89 285 -102 415 -10 95 -8 286 5 370
58 401 285 778 615 1022 44 33 85 63 90 67 52 40 237 132 345 172 125 47 291
90 405 106 28 3 59 8 70 10 11 2 65 7 120 10 55 4 101 7 102 8 4 3 180 -2 258
-8z m-300 -4427 c59 -16 105 -42 151 -86 194 -185 140 -497 -105 -611 -48 -23
-70 -27 -151 -27 -82 0 -103 4 -152 27 -74 34 -152 112 -186 186 -23 49 -27
70 -27 152 0 82 4 103 27 152 81 173 259 256 443 207z"/>
<path d="M3435 5613 c-133 -32 -230 -113 -284 -238 -19 -44 -25 -157 -12 -212
49 -204 252 -330 452 -279 239 62 353 320 236 539 -48 90 -133 157 -237 184
-39 10 -124 14 -155 6z"/>
</g>
</svg>
