<svg height='100px' width='100px'  fill="#848484" xmlns="http://www.w3.org/2000/svg" xmlns:xlink="http://www.w3.org/1999/xlink" xml:space="preserve" version="1.1" style="shape-rendering:geometricPrecision;text-rendering:geometricPrecision;image-rendering:optimizeQuality;" viewBox="0 0 50000 50000" x="0px" y="0px" fill-rule="evenodd" clip-rule="evenodd"><defs><style type="text/css">
   
    .fil0 {fill:#848484}
   
  </style></defs><g><path class="fil0" d="M25000 1191.31c6574.52,0 12526.69,2664.9 16835.24,6973.45 4308.55,4308.55 6973.45,10260.72 6973.45,16835.24 0,6574.53 -2664.9,12526.69 -6973.45,16835.24 -4308.55,4308.55 -10260.72,6973.45 -16835.24,6973.45 -6574.53,0 -12526.69,-2664.9 -16835.24,-6973.45 -4308.55,-4308.55 -6973.45,-10260.71 -6973.45,-16835.24 0,-6574.53 2664.9,-12526.69 6973.45,-16835.24 4308.55,-4308.55 10260.71,-6973.45 16835.24,-6973.45zm13.17 8675.01c1472.94,0 2667,1194.06 2667,2667 0,1472.94 -1194.06,2667 -2667,2667 -1472.94,0 -2667,-1194.06 -2667,-2667 0,-1472.94 1194.06,-2667 2667,-2667zm-13.17 15133.68c-7982.5,-92.76 -12010.38,-6211.87 -11483.61,-12044.33 459.51,-5087.78 5125.68,-11037.45 14555.15,-10357.08 5014.57,681.14 9506.66,3006.01 12915.26,6414.61 4091.34,4091.34 6621.89,9743.53 6621.89,15986.8 0,6243.27 -2530.55,11895.46 -6621.89,15986.8 -3172.19,3172.19 -7282.8,5405.77 -11879.64,6249.33 11089.85,-4449.82 9973.31,-22207.91 -4107.16,-22236.13zm13.17 9108.64c1472.94,0 2667,1194.06 2667,2667 0,1472.94 -1194.06,2667 -2667,2667 -1472.94,0 -2667,-1194.06 -2667,-2667 0,-1472.94 1194.06,-2667 2667,-2667z"></path></g></svg>